<svg id="Layer_1" data-name="Layer 1" xmlns="http://www.w3.org/2000/svg" xmlns:xlink="http://www.w3.org/1999/xlink" viewBox="0 0 465.83 443.64"><defs><style>.cls-1,.cls-6,.cls-7,.cls-8{fill:none;}.cls-2{clip-path:url(#clip-path);}.cls-13,.cls-3{fill:#f18a20;}.cls-4{fill:#fff;}.cls-5,.cls-9{fill:#c31c18;}.cls-6,.cls-7{stroke:#c31c18;stroke-width:2px;}.cls-6,.cls-8{stroke-miterlimit:10;}.cls-7{stroke-linejoin:round;}.cls-8{stroke:#fff;}.cls-13,.cls-9{font-size:48.49px;font-family:RussoOne, Russo One;}.cls-10{letter-spacing:-0.02em;}.cls-11{letter-spacing:-0.08em;}.cls-12{letter-spacing:-0.06em;}.cls-14{letter-spacing:-0.05em;}.cls-15{letter-spacing:-0.07em;}</style><clipPath id="clip-path" transform="translate(-167.08 -78.18)"><rect class="cls-1" x="244.65" y="78.18" width="310.7" height="416"/></clipPath></defs><g class="cls-2"><path class="cls-3" d="M540.78,190.2a134,134,0,0,1-28,105.5,128.24,128.24,0,0,0,16.06-85.4C517.76,140.84,453.14,93.62,384.5,104.84c-57.57,9.41-99.68,56.92-105.2,113C276,150.94,323,90.83,389.82,79.9c71.78-11.73,139.37,37.65,151,110.3" transform="translate(-167.08 -78.18)"/></g><g class="cls-2"><path class="cls-4" d="M481.45,246.54a20.31,20.31,0,0,0-6.67.5,17.18,17.18,0,0,0-11.85,3.08,36.59,36.59,0,0,0-6.1,6.57,11.06,11.06,0,0,0-6.72.74,26.65,26.65,0,0,0-11.6,6,.4.4,0,0,0-.15.35,4.24,4.24,0,0,0-2.19-.17c-3,.49-6.1,2.07-9,3.13-1.71-.36-3.31-.64-4.66-.85-6.69-1.07-13.79-.18-20.22-2.53-6.94-2.54-13.29-6.61-19.63-10.35-6.08-3.58-12.19-4.53-19.13-5-4.28-.28-17.38.84-19.67,1.35-4.24.94-23.82,6.14-28,7.22-18.84,4.8-81.12,20.32-41.07,11.09,7.81-1.81,48-11.2,55.77-13.24,3.82-1,7.63-2,11.44-3,1.18-.3,2.35-.55,3.5-.75a28.61,28.61,0,0,0-2.95,1.61c-.29.2,0,.64.26.48a24.82,24.82,0,0,1,8.13-2.83l2.31-.23a.19.19,0,0,0,.16-.11,55.61,55.61,0,0,1,8.64-.15c6.36.31,12.55.91,18.22,4.05,5.33,3,10.39,6.28,15.87,9a37.33,37.33,0,0,0,16,4.24,78,78,0,0,1,18.58,2.73c4.39,1.25,9.57,3,12.38,6.75a2.74,2.74,0,0,0-1.81-.92c-.11,0-.19.17-.1.24,3,2.54,2.05,6.79,2.09,10.35,0,.06.08.06.1,0,.61-1.93,1.49-6.62.16-9.07a10.31,10.31,0,0,1,1.28,2.92,6.76,6.76,0,0,1-3.08,8,.18.18,0,0,0-.33.11c0,.07-.29.22-.34.27s0,0,0,.05l-.71.38s0-.05-.07-.05c-4,.1-9.94.1-11.45-4.65a9.49,9.49,0,0,1,.4-6.82c1.43-2.85,3.57-3.68,6.62-3.6.09,0,.12-.15,0-.18-2.28-.64-4.48-.88-6.21,1a9.75,9.75,0,0,0-2.2,8.39c.47,3.09,1.61,4.67,4.5,5.82a12.27,12.27,0,0,0,5.88,1.05,27.65,27.65,0,0,1-3.88.94,40.29,40.29,0,0,1-18.89-1.21c-1.34-.37-2.65-.8-4-1.24a.24.24,0,0,0,.07-.2,18.23,18.23,0,0,0-1.72-3.76,11.35,11.35,0,0,1-1.45-5.55.07.07,0,0,0-.14,0c-.94,2.89,1,7.11,2.77,9.41a99.69,99.69,0,0,0-13.58-3.87c-1.16-.21-2.33-.37-3.51-.5a2.57,2.57,0,0,1-.39-.34,3.45,3.45,0,0,1-.41-.59.1.1,0,0,0-.18.07,1.72,1.72,0,0,0,.36.81l-1-.09c-.21-.15-.44-.27-.62-.4-.45-.3-.89-.58-1.37-.85-.09,0-.18.07-.1.14a14.5,14.5,0,0,0,1.18,1l0,0c-.41,0-.83,0-1.25-.06-.22-.15-.45-.29-.63-.44-.51-.41-1-.81-1.5-1.22-.07-.07-.16,0-.11.11a15,15,0,0,0,1.37,1.5l0,0h-1.28L387,283c-.59-.32-1.2-.64-1.81-.93-.06,0-.09,0,0,.08.53.4,1.08.79,1.66,1.17-.66,0-1.31.05-1.95.09-.36-.12-.72-.25-1.06-.39a10.88,10.88,0,0,0-2.64-.86c-.08,0-.09.1,0,.14a10.7,10.7,0,0,0,2.39,1.14l.19.08a41.88,41.88,0,0,0-6.11,1.13c-.35.1-.31.71.07.67a60.76,60.76,0,0,1,21.72.8c6.17,1.49,12,4,18.2,5.49a40,40,0,0,0,18.46,0c4.41-1,9.44-3,10.45-8,1.07-5.34-1.54-9.08-5.54-11.72,2.78-1.82,5.53-3.69,8.36-5.44,3-1.85,6.12-3.23,9.17-4.89h0a5.36,5.36,0,0,0,1.5,2,8.72,8.72,0,0,0,2.58,2c.23.11.52-.18.3-.39-.77-.68-1.61-1.23-2.31-2a19.23,19.23,0,0,0-1.53-1.92,10.75,10.75,0,0,1,1.86-3.4c.37-.14.74-.36,1.09-.52.11,0,0-.23-.08-.21l-.55.16.13-.17h0a.09.09,0,0,0,.07-.1l.29-.33,1.69-.55a0,0,0,0,0,0-.09l-1,.21c0-.05,0-.1-.06-.1h-.07c.11-.11.22-.24.35-.35.78-.17,1.56-.33,2.33-.53a.12.12,0,0,0,0-.23,9.82,9.82,0,0,0-1.69.15,2.28,2.28,0,0,1,.22-.22c.32-.07.62-.2.94-.28a10.25,10.25,0,0,1,1.64-.29.1.1,0,0,0,0-.2,6.21,6.21,0,0,0-1.81.06l.5-.43c.85-.21,1.71-.38,2.58-.54a.09.09,0,0,0,0-.17,9.64,9.64,0,0,0-2,.21q.22-.21.45-.39a.18.18,0,0,0,.1-.09l.12-.11.25-.21a7.72,7.72,0,0,1,1.58-.18c.58,0,1.15,0,1.73,0a.13.13,0,0,0,0-.26,6.85,6.85,0,0,0-2.59-.17l.44-.33a.22.22,0,0,0,.28.17,11.6,11.6,0,0,1,3.46-.38c.14,0,.18-.21,0-.23a6.92,6.92,0,0,0-3.2,0c.29-.2.58-.38.87-.56,0,0,0,0,0,0a14.88,14.88,0,0,0,1.87-.11,11.5,11.5,0,0,1,2.1.21c.15,0,.23-.21.07-.27a6.72,6.72,0,0,0-2.16-.37,7.68,7.68,0,0,0-1.07,0l.67-.36a9.74,9.74,0,0,1,3.94.5.12.12,0,0,0,.1-.21,7.19,7.19,0,0,0-3-.79l.4-.16a11.86,11.86,0,0,1,1.88.11,9.32,9.32,0,0,1,1.95.58c.14.07.24-.18.11-.25a7.06,7.06,0,0,0-2.58-.93l.67-.21a7.91,7.91,0,0,1,3.16.81.09.09,0,0,0,.09-.16,6.3,6.3,0,0,0-2.08-.94c.22,0,.44-.1.66-.13a6.13,6.13,0,0,1,.95.1,11.35,11.35,0,0,1,2.07.58c.07,0,.11-.08.06-.11a10.42,10.42,0,0,0-1.91-.76q.74-.09,1.5-.15h0a5.91,5.91,0,0,1,1.23.57c.06,0,.15-.06.09-.13a5,5,0,0,0-.62-.5c1.54-.11,3.77-.21,4.75.75.31.88.61,1.75.91,2.63a18.78,18.78,0,0,0-4.71,4.22c-1.07,1.28-2.27,2.65-1.87,4.42a.33.33,0,0,0,.11.18,33.37,33.37,0,0,0-2.17,2.88c-8,4.83-14.79,11.6-21.27,18.35-1,1.07-2.12,2.13-3.1,3.28l-.22-.17a1.47,1.47,0,0,0-1-.13c-.12,0-.09.19,0,.22a2.37,2.37,0,0,1,.84.54l-.18.22a2.8,2.8,0,0,0-.31.49l-.1-.1A6.49,6.49,0,0,0,450,285a.18.18,0,0,0-.18.29,5.13,5.13,0,0,0,.81.57.18.18,0,0,0,.13,0,2.43,2.43,0,0,1-.85.85c-.39.25-1.13.35-1.56.58-2,1.13-3.58,2.7-5.81,3.58s-4.57,1.48-6.81,2.36c-8.74,3.43-16.42,8.92-24.6,13.45a17.66,17.66,0,0,1-7.94,2.61,40.11,40.11,0,0,1-7.16-.77,50.45,50.45,0,0,0-13.61-.26c-.19,0-.14.33,0,.35a115.72,115.72,0,0,1,16,1.54,17.82,17.82,0,0,0,10.68-1c1-.41,1.91-.87,2.83-1.36h.52a6.5,6.5,0,0,0,1.63-.35.1.1,0,0,0-.05-.19,8.81,8.81,0,0,1-1.25.12c.38-.21.78-.41,1.17-.64a22.63,22.63,0,0,0,3-.79.12.12,0,0,0-.07-.22c-.55.11-1.1.21-1.66.29.48-.26,1-.56,1.43-.83,1.24-.28,2.44-.63,3.71-.81.19,0,.15-.37-.05-.36-.72.07-1.46.15-2.21.28l1.5-.92c.43-.1.85-.28,1.28-.39.74-.21,1.48-.39,2.22-.53.12,0,.1-.22,0-.2-.56,0-1.24.05-1.92.13.35-.2.68-.41,1-.63,1-.23,1.91-.49,2.86-.75a.12.12,0,0,0-.06-.24l-1.57.21,1-.63.41-.11A10.57,10.57,0,0,1,427,300a.15.15,0,0,0,0-.29,13.21,13.21,0,0,0-1.33-.07l1.16-.71c1.2-.18,2.41-.43,3.6-.65a.12.12,0,0,0,0-.24l-2.3.16c.46-.28.93-.53,1.41-.79,1.2-.16,2.39-.32,3.6-.39a.14.14,0,0,0,0-.28c-.81,0-1.62,0-2.43,0,.41-.21.82-.43,1.24-.63a23.79,23.79,0,0,1,3.59-.16c.15,0,.15-.24,0-.25a22.78,22.78,0,0,0-2.38-.17c.43-.21.89-.4,1.34-.6.47,0,.94-.07,1.4-.09.91-.06,1.81-.14,2.72-.22.18,0,.19-.28,0-.28-.9,0-1.81,0-2.73,0,.63-.23,1.26-.45,1.9-.66,1.15,0,2.3,0,3.46,0a.13.13,0,0,0,0-.25l-2.14-.16,1.2-.39a20.12,20.12,0,0,0,3.35-.2.12.12,0,1,0,0-.23h-2.1l1-.36A7.78,7.78,0,0,0,445,292a.11.11,0,0,0,0-.22,14.12,14.12,0,0,1-1.59,0,17.71,17.71,0,0,0,3.65-2l.74-.6a4.9,4.9,0,0,1,1-.75h0c1.16.43,2.73-.27,3.75-.83.11-.06,0-.24-.07-.19a12.83,12.83,0,0,1-1.83.44c-.2,0-.42,0-.64.06a3.63,3.63,0,0,1,.59-.13c.23-.11.6-.1.81-.29a1.26,1.26,0,0,0,.27-.38c.16-.05.31-.12.46-.18.55-.21,1.07-.46,1.6-.71.13-.06.05-.26-.09-.23-.54.12-1.06.25-1.58.41.14-.26.27-.51.41-.73a3.69,3.69,0,0,0,1.24-.54c.53-.27,1.08-.53,1.64-.77.13-.05,0-.23-.08-.22a9.15,9.15,0,0,0-1.88.51,2.71,2.71,0,0,0-.3.13,9,9,0,0,1,.63-.78,8.27,8.27,0,0,0,1.13-.51c.66-.31,1.3-.63,1.95-.92.09,0,0-.19-.06-.17a19.8,19.8,0,0,0-2.07.61l-.06,0,.7-.71c.31-.1.61-.24.9-.33.53-.18,1.07-.35,1.62-.49.16,0,.09-.26-.06-.25-.48.06-1.08.11-1.66.24l.21-.2a16.81,16.81,0,0,0,2.55-1.08.1.1,0,0,0-.08-.18c-.51.11-1.06.21-1.6.35l.27-.25a6.53,6.53,0,0,0,1.9-1s0-.12,0-.1a5.66,5.66,0,0,0-1.07.22l.39-.39.28-.11c.38-.15.78-.33,1.17-.51.12-.06,0-.24-.09-.21l-.68.17.44-.44c.57-.19,1.15-.4,1.73-.57a.1.1,0,0,0,0-.19,10.12,10.12,0,0,0-1.07.14c.12-.13.25-.24.37-.36a21.81,21.81,0,0,0,2.87-.9.13.13,0,0,0-.07-.24c-.61.11-1.3.19-2,.35.14-.14.27-.27.41-.39a26.76,26.76,0,0,0,4.12-1.14.13.13,0,0,0-.07-.25c-1.05.23-2.26.4-3.36.73.52-.48,1-1,1.58-1.44a13.49,13.49,0,0,0,1.51-.41c.77-.2,1.54-.41,2.29-.66a.15.15,0,0,0-.07-.29c-.78.15-1.55.34-2.32.54l-.68.15,1.64-1.43a8.72,8.72,0,0,0,1.31-.43c.57-.18,1.14-.36,1.71-.51.13,0,.11-.25,0-.24a12.49,12.49,0,0,0-2,.33l1-.79c.3-.07.59-.19.89-.29.51-.17,1-.32,1.53-.47.16-.06.15-.34,0-.32a7.89,7.89,0,0,0-1.28.18l.38-.29a23.11,23.11,0,0,0,2.36-.74.16.16,0,0,0-.09-.31c-.38.09-.81.14-1.22.23l.67-.52a8.57,8.57,0,0,0,2.23-.61.13.13,0,0,0-.07-.26c-.42.08-.88.14-1.3.25,1-.77,2.07-1.49,3.14-2.21l-.45.89a24.41,24.41,0,0,1-4,5.8c-3.2,3.48-6.8,6.61-10.2,9.88-2.91,2.8-6,5.58-7.86,9.24-.14.27-.24.53-.37.81a5.55,5.55,0,0,0-1.91-1.76c-.27-.17-.52.26-.26.43a5,5,0,0,1,1.8,2.11,3.55,3.55,0,0,1-.38.62,2.59,2.59,0,0,0-.18-.29,3.36,3.36,0,0,0-.47-.6c-.12-.11-.37,0-.3.18a3.47,3.47,0,0,0,.33.67c.11.15.18.32.33.4,0,0,0,0,0,.05a12,12,0,0,1-3.58,2C446,296,443.72,297,441.41,298c-8.68,3.68-17.63,7.25-25.69,12.22-4.09,2.52-8.29,7.1-13.4,7-3.45,0-6.65-2-9.61-3.81a8,8,0,0,0-2.39-1.76,20,20,0,0,0-4-1.25c-2.58-1.13-5.23-2.09-7.73-3-7.09-2.64-14.28-5-21.52-7.17-6.67-2-13.48-4-20.48-4-6.65,0-21.72,2.91-27.82,5.61-.51.23-31.64,13.44-31.64,13.56,7.12-.95,53.13-17.93,60.46-17.71,6.85.21,13.55,2.36,20.09,4.34,13.1,4,26.15,8.26,38.22,14.8a.34.34,0,0,0,.14,0,14.75,14.75,0,0,0,4.46,1.59c4.15.69,7.54-1.27,10.82-3.61,8.46-6.06,17.76-10,27.09-14.44,2.6-1.22,5.15-2.49,7.77-3.64,1.84-.81,4.06-1.36,5.68-2.56s2.17-3.21,3.25-4.9a30.65,30.65,0,0,1,4.67-5.31c3.68-3.54,7.47-7,11-10.63a23.88,23.88,0,0,0,4.11-5.32c.77-1.42,1.28-2.95,2-4.35a.64.64,0,0,0,.19-.35l.34-.57c1.64-1.61,3.08-3.48,4.55-5.21,1.33-1.57,3-3.18,3.84-5.11,1.43-3.42-1.27-5.6-4.43-5.89m-24.92,10.53-.06.07h-.11l.17-.06m-27.39,10.16c3.66-1.31,8.28-4.27,10.8-1.83,0,.05.12,0,.08-.06a3.72,3.72,0,0,0-.92-1.1c.14-.07.29-.17.43-.25l.15-.06c.37,0,.77,0,1.13,0,.71,0,1.42-.09,2.14-.14.13,0,.15-.21,0-.22-.67-.06-1.33-.13-2-.16.37-.16.74-.36,1.11-.54,1,0,2.06-.07,3.12-.05.13,0,.17-.23,0-.25a13.89,13.89,0,0,0-2.14-.25c.36-.2.72-.42,1.07-.63.32,0,.63-.06.94-.06a16.69,16.69,0,0,1,2.34.13c.07,0,.09-.13,0-.14a15,15,0,0,0-2.41-.46c.29-.16.6-.34.88-.52l.7,0a19.05,19.05,0,0,0,2.39-.15.12.12,0,0,0,0-.24,15.91,15.91,0,0,0-2.08-.16c.26-.16.52-.29.79-.43.85,0,1.73-.05,2.56-.09.13,0,.13-.19,0-.22l-1.64-.17.63-.32h.1c.65,0,1.3.1,1.95.14.12,0,.15-.18,0-.22a8.55,8.55,0,0,0-1.21-.32,11.36,11.36,0,0,1,2.74-.87l.16,0,.67-.08c.58,0,1.14-.07,1.69-.14l1,0-.76.91c-3.28,1.75-6.22,4.19-9.42,6.09a70,70,0,0,1-10.12,5.11,50.91,50.91,0,0,0-6.91-2.16m31-9.36h0v0a9.8,9.8,0,0,0-1.75,2.94c-3.25.75-6.37,2.64-9.18,4.37-3.15,1.91-6.22,4-9.28,6.06a23.38,23.38,0,0,0-2.64-1.35,59.78,59.78,0,0,0,6.22-3.06,6.22,6.22,0,0,1,1.43,0c.08,0,.08-.11,0-.14a4.4,4.4,0,0,0-.81-.22l.85-.5c.36,0,.73-.15,1.09-.21a14.75,14.75,0,0,1,1.76-.15.12.12,0,0,0,0-.24,11.57,11.57,0,0,0-1.8-.05l.13-.09,1.12-.69a6.49,6.49,0,0,0,1.24-.17c.68-.11,1.32-.28,2-.44.11,0,.09-.23,0-.21-.63,0-1.26.05-1.89.14h-.24c.44-.26.88-.56,1.32-.83a3.83,3.83,0,0,0,1.1-.18,14,14,0,0,1,1.85-.3c.08,0,.1-.13,0-.13a8.8,8.8,0,0,0-1.92-.06l.91-.6a2.84,2.84,0,0,0,1.12-.07l1.53-.27a.12.12,0,0,0,0-.24c-.56,0-1.14,0-1.7,0h-.13l.42-.29a10,10,0,0,0,4-.63.07.07,0,0,0,0-.14c-1.07.13-2.14.15-3.21.18l.26-.19c0,.11.14.21.25.12s.38-.28.58-.41c1.36-.3,2.71-.63,4.06-1,.12,0,.07-.21,0-.2-1.06.15-2.11.32-3.16.51a7,7,0,0,0,.58-.51h.1a39.11,39.11,0,0,0,4.21-1.14,4.09,4.09,0,0,0-.28.33m.65-.77c-1.35.26-2.71.57-4,.94.13-.11.24-.24.36-.35a.3.3,0,0,0,.16.05,25.58,25.58,0,0,0,2.59-.75c.29-.09.57-.16.86-.23a.19.19,0,0,0,.13.27l-.07.07m1.47-1.63-.72.19a.23.23,0,0,0,.11.44s0,0,.06,0a1.66,1.66,0,0,0-.13.14,10.44,10.44,0,0,0-3.77.72c.18-.19.34-.39.52-.58h0a22.65,22.65,0,0,1,4.64-1.7l-.72.81m5.09-5a32.74,32.74,0,0,0-4.31,4.1s0-.07-.06-.07a10.64,10.64,0,0,0-3.9,1c.25-.28.5-.58.73-.85a27.37,27.37,0,0,1,4.44-1.85.07.07,0,0,0,0-.14,9.73,9.73,0,0,0-3.32.77l.53-.57h0a22.06,22.06,0,0,1,4.13-1.53c.11,0,.09-.23,0-.21a10.94,10.94,0,0,0-3.17.8c.2-.18.41-.36.62-.52a.28.28,0,0,0,.18,0,12.68,12.68,0,0,1,3.84-1,.09.09,0,0,0,0-.17,9,9,0,0,0-3.13.51,13.91,13.91,0,0,1,1.67-1,25.26,25.26,0,0,1,3.58-.87c.09,0,.06-.15,0-.15a9.25,9.25,0,0,0-1.3.09l.64-.2a22.18,22.18,0,0,1,3.52-.62,19.26,19.26,0,0,0-4.63,2.58m-77,61.83-.28-.15a1.83,1.83,0,0,1,.28.14ZM484,253.28a25.67,25.67,0,0,1-1.82,2.23c-1.06,1.23-2.2,2.46-3.28,3.73-.25-1.95,1.89-3.92,3.09-5.16.93-1,2-1.8,3-2.71a0,0,0,0,0,0,0,7.65,7.65,0,0,1-1,1.89" transform="translate(-167.08 -78.18)"/><path class="cls-4" d="M437.42,273.82a1.93,1.93,0,0,0,1.07.21.14.14,0,0,0,0-.28,1.92,1.92,0,0,0-1-.13c-.08,0-.14.14-.06.2" transform="translate(-167.08 -78.18)"/><path class="cls-4" d="M412.19,271.13c.11-.16-.14-.36-.27-.21a3.48,3.48,0,0,0-.59.78.16.16,0,0,0,.26.19,3,3,0,0,0,.6-.76" transform="translate(-167.08 -78.18)"/><path class="cls-4" d="M408.76,281.22a.15.15,0,0,0,.27,0c.23-1.23.05-2.51.24-3.76a18.71,18.71,0,0,1,1.1-4c0-.06-.06-.08-.09,0-1.4,2-2.59,5.46-1.52,7.85" transform="translate(-167.08 -78.18)"/><path class="cls-4" d="M418.42,273.45c0-.09-.14,0-.13.05a14.4,14.4,0,0,1-.15,6.3c-.52,1.65-1.38,3.15-2,4.74,0,.1.09.14.15.1,3-2.35,3.54-7.85,2.15-11.19" transform="translate(-167.08 -78.18)"/><path class="cls-4" d="M415.7,285.46a2.84,2.84,0,0,0-.54.43c-.18.2.1.5.29.3a3.13,3.13,0,0,0,.37-.6c0-.08,0-.19-.12-.13" transform="translate(-167.08 -78.18)"/><path class="cls-4" d="M418.88,282.66a4.39,4.39,0,0,0,.45-1.29.08.08,0,0,0-.15,0,4.29,4.29,0,0,0-.44,1.29c0,.08.1.1.14,0" transform="translate(-167.08 -78.18)"/><path class="cls-4" d="M418.16,284.53a.42.42,0,0,0-.22.08.17.17,0,0,0,.08.31.46.46,0,0,0,.23,0,.19.19,0,0,0-.09-.36" transform="translate(-167.08 -78.18)"/><path class="cls-4" d="M432.15,277.07a.12.12,0,0,0,.22-.06,1.9,1.9,0,0,0,0-.41c0-.23-.41-.13-.34.09a2.05,2.05,0,0,0,.16.38" transform="translate(-167.08 -78.18)"/><path class="cls-4" d="M432.35,282.33a8,8,0,0,0,.16-3.48c0-.08-.14-.06-.14,0a10.1,10.1,0,0,1-.5,3.32c-.33.94-1.14,1.81-1.31,2.75a.15.15,0,0,0,.21.17c.91-.45,1.33-1.84,1.58-2.78" transform="translate(-167.08 -78.18)"/><path class="cls-4" d="M430,284.85a.82.82,0,0,0-.4.44.23.23,0,0,0,.28.29.7.7,0,0,0,.43-.31c.18-.21-.05-.59-.31-.42" transform="translate(-167.08 -78.18)"/><path class="cls-4" d="M395.44,302a3.78,3.78,0,0,0,1.21.13c.3,0,.3-.45,0-.48a4.09,4.09,0,0,0-1.21,0,.18.18,0,0,0,0,.35" transform="translate(-167.08 -78.18)"/><path class="cls-4" d="M351.1,292c3.2.76,6.56.73,9.8,1.55,3.41.86,6.72,2.05,10,3.2,6.23,2.17,12.62,4.14,19.24,4.37a.18.18,0,0,0,0-.35c-7.22-.42-13.82-3.21-20.57-5.59a87.9,87.9,0,0,0-9.65-2.93c-2.77-.63-6.06-1.43-8.87-.77a.27.27,0,0,0,0,.52" transform="translate(-167.08 -78.18)"/><path class="cls-4" d="M275.32,316.53,259.9,270.87s89.91-23.42,104.6-22.73S393,262,403.23,264.4s23.14,3.07,24,2.84,7.51-3.12,9.29-3.27,2.06.06,2.06.06,8.75-7.25,15.15-7h3.39s4.82-6.6,7.16-7.4,6.85-2.73,8.95-2.3,12.25-1.85,12.08,2.48-6.57,9.36-9.42,15.47S460.85,282,460.83,282.51s-6.2,5.44-7.9,9.4-15.7,7.4-21.94,11.19-14.29,7.32-23.73,13.43c0,0-4.62,4-11.17-.57S346.37,296.78,338,296.79s-62.71,19.74-62.71,19.74" transform="translate(-167.08 -78.18)"/><path class="cls-3" d="M481.45,246.54a20.31,20.31,0,0,0-6.67.5,17.18,17.18,0,0,0-11.85,3.08,36.59,36.59,0,0,0-6.1,6.57,11.06,11.06,0,0,0-6.72.74,26.65,26.65,0,0,0-11.6,6,.4.4,0,0,0-.15.35,4.24,4.24,0,0,0-2.19-.17c-3,.49-6.1,2.07-9,3.13-1.71-.36-3.31-.64-4.66-.85-6.69-1.07-13.79-.18-20.22-2.53-6.94-2.54-13.29-6.61-19.63-10.35-6.08-3.58-12.19-4.53-19.13-5-4.28-.28-17.38.84-19.67,1.35-4.24.94-23.82,6.14-28,7.22-14.13,3.6-52.69,13.23-54.2,13.92-.5.24,3.12-.52,13.13-2.83,7.81-1.81,48-11.2,55.77-13.24,3.82-1,7.63-2,11.44-3,1.18-.3,2.35-.55,3.5-.75a28.61,28.61,0,0,0-2.95,1.61c-.29.2,0,.64.26.48a24.82,24.82,0,0,1,8.13-2.83l2.31-.23a.19.19,0,0,0,.16-.11,55.61,55.61,0,0,1,8.64-.15c6.36.31,12.55.91,18.22,4.05,5.33,3,10.39,6.28,15.87,9a37.33,37.33,0,0,0,16,4.24,78,78,0,0,1,18.58,2.73c4.39,1.25,9.57,3,12.38,6.75a2.74,2.74,0,0,0-1.81-.92c-.11,0-.19.17-.1.24,3,2.54,2.05,6.79,2.09,10.35,0,.06.08.06.1,0,.61-1.93,1.49-6.62.16-9.07a10.31,10.31,0,0,1,1.28,2.92,6.76,6.76,0,0,1-3.08,8,.18.18,0,0,0-.33.11c0,.07-.29.22-.34.27s0,0,0,.05l-.71.38s0-.05-.07-.05c-4,.1-9.94.1-11.45-4.65a9.49,9.49,0,0,1,.4-6.82c1.43-2.85,3.57-3.68,6.62-3.6.09,0,.12-.15,0-.18-2.28-.64-4.48-.88-6.21,1a9.75,9.75,0,0,0-2.2,8.39c.47,3.09,1.61,4.67,4.5,5.82a12.27,12.27,0,0,0,5.88,1.05,27.65,27.65,0,0,1-3.88.94,40.29,40.29,0,0,1-18.89-1.21c-1.34-.37-2.65-.8-4-1.24a.24.24,0,0,0,.07-.2,18.23,18.23,0,0,0-1.72-3.76,11.35,11.35,0,0,1-1.45-5.55.07.07,0,0,0-.14,0c-.94,2.89,1,7.11,2.77,9.41a99.69,99.69,0,0,0-13.58-3.87c-1.16-.21-2.33-.37-3.51-.5a2.57,2.57,0,0,1-.39-.34,3.45,3.45,0,0,1-.41-.59.1.1,0,0,0-.18.07,1.72,1.72,0,0,0,.36.81l-1-.09c-.21-.15-.44-.27-.62-.4-.45-.3-.89-.58-1.37-.85-.09,0-.18.07-.1.14a14.5,14.5,0,0,0,1.18,1l0,0c-.41,0-.83,0-1.25-.06-.22-.15-.45-.29-.63-.44-.51-.41-1-.81-1.5-1.22-.07-.07-.16,0-.11.11a15,15,0,0,0,1.37,1.5l0,0h-1.28L387,283c-.59-.32-1.2-.64-1.81-.93-.06,0-.09,0,0,.08.53.4,1.08.79,1.66,1.17-.66,0-1.31.05-1.95.09-.36-.12-.72-.25-1.06-.39a10.88,10.88,0,0,0-2.64-.86c-.08,0-.09.1,0,.14a10.7,10.7,0,0,0,2.39,1.14l.19.08a41.88,41.88,0,0,0-6.11,1.13c-.35.1-.31.71.07.67a60.76,60.76,0,0,1,21.72.8c6.17,1.49,12,4,18.2,5.49a40,40,0,0,0,18.46,0c4.41-1,9.44-3,10.45-8,1.07-5.34-1.54-9.08-5.54-11.72,2.78-1.82,5.53-3.69,8.36-5.44,3-1.85,6.12-3.23,9.17-4.89h0a5.36,5.36,0,0,0,1.5,2,8.72,8.72,0,0,0,2.58,2c.23.11.52-.18.3-.39-.77-.68-1.61-1.23-2.31-2a19.23,19.23,0,0,0-1.53-1.92,10.75,10.75,0,0,1,1.86-3.4c.37-.14.74-.36,1.09-.52.11,0,0-.23-.08-.21l-.55.16.13-.17h0a.09.09,0,0,0,.07-.1l.29-.33,1.69-.55a0,0,0,0,0,0-.09l-1,.21c0-.05,0-.1-.06-.1h-.07c.11-.11.22-.24.35-.35.78-.17,1.56-.33,2.33-.53a.12.12,0,0,0,0-.23,9.82,9.82,0,0,0-1.69.15,2.28,2.28,0,0,1,.22-.22c.32-.07.62-.2.94-.28a10.25,10.25,0,0,1,1.64-.29.1.1,0,0,0,0-.2,6.21,6.21,0,0,0-1.81.06l.5-.43c.85-.21,1.71-.38,2.58-.54a.09.09,0,0,0,0-.17,9.64,9.64,0,0,0-2,.21q.22-.21.45-.39a.18.18,0,0,0,.1-.09l.12-.11.25-.21a7.72,7.72,0,0,1,1.58-.18c.58,0,1.15,0,1.73,0a.13.13,0,0,0,0-.26,6.85,6.85,0,0,0-2.59-.17l.44-.33a.22.22,0,0,0,.28.17,11.6,11.6,0,0,1,3.46-.38c.14,0,.18-.21,0-.23a6.92,6.92,0,0,0-3.2,0c.29-.2.58-.38.87-.56,0,0,0,0,0,0a14.88,14.88,0,0,0,1.87-.11,11.5,11.5,0,0,1,2.1.21c.15,0,.23-.21.07-.27a6.72,6.72,0,0,0-2.16-.37,7.68,7.68,0,0,0-1.07,0l.67-.36a9.74,9.74,0,0,1,3.94.5.12.12,0,0,0,.1-.21,7.19,7.19,0,0,0-3-.79l.4-.16a11.86,11.86,0,0,1,1.88.11,9.32,9.32,0,0,1,1.95.58c.14.07.24-.18.11-.25a7.06,7.06,0,0,0-2.58-.93l.67-.21a7.91,7.91,0,0,1,3.16.81.09.09,0,0,0,.09-.16,6.3,6.3,0,0,0-2.08-.94c.22,0,.44-.1.66-.13a6.13,6.13,0,0,1,.95.1,11.35,11.35,0,0,1,2.07.58c.07,0,.11-.08.06-.11a10.42,10.42,0,0,0-1.91-.76q.74-.09,1.5-.15h0a5.91,5.91,0,0,1,1.23.57c.06,0,.15-.06.09-.13a5,5,0,0,0-.62-.5c1.54-.11,3.77-.21,4.75.75.31.88.61,1.75.91,2.63a18.78,18.78,0,0,0-4.71,4.22c-1.07,1.28-2.27,2.65-1.87,4.42a.33.33,0,0,0,.11.18,33.37,33.37,0,0,0-2.17,2.88c-8,4.83-14.79,11.6-21.27,18.35-1,1.07-2.12,2.13-3.1,3.28l-.22-.17a1.47,1.47,0,0,0-1-.13c-.12,0-.09.19,0,.22a2.37,2.37,0,0,1,.84.54l-.18.22a2.8,2.8,0,0,0-.31.49l-.1-.1A6.49,6.49,0,0,0,450,285a.18.18,0,0,0-.18.29,5.13,5.13,0,0,0,.81.57.18.18,0,0,0,.13,0,2.43,2.43,0,0,1-.85.85c-.39.25-1.13.35-1.56.58-2,1.13-3.58,2.7-5.81,3.58s-4.57,1.48-6.81,2.36c-8.74,3.43-16.42,8.92-24.6,13.45a17.66,17.66,0,0,1-7.94,2.61,40.11,40.11,0,0,1-7.16-.77,50.45,50.45,0,0,0-13.61-.26c-.19,0-.14.33,0,.35a115.72,115.72,0,0,1,16,1.54,17.82,17.82,0,0,0,10.68-1c1-.41,1.91-.87,2.83-1.36h.52a6.5,6.5,0,0,0,1.63-.35.1.1,0,0,0-.05-.19,8.81,8.81,0,0,1-1.25.12c.38-.21.78-.41,1.17-.64a22.63,22.63,0,0,0,3-.79.12.12,0,0,0-.07-.22c-.55.11-1.1.21-1.66.29.48-.26,1-.56,1.43-.83,1.24-.28,2.44-.63,3.71-.81.19,0,.15-.37-.05-.36-.72.07-1.46.15-2.21.28l1.5-.92c.43-.1.85-.28,1.28-.39.74-.21,1.48-.39,2.22-.53.12,0,.1-.22,0-.2-.56,0-1.24.05-1.92.13.35-.2.68-.41,1-.63,1-.23,1.91-.49,2.86-.75a.12.12,0,0,0-.06-.24l-1.57.21,1-.63.41-.11A10.57,10.57,0,0,1,427,300a.15.15,0,0,0,0-.29,13.21,13.21,0,0,0-1.33-.07l1.16-.71c1.2-.18,2.41-.43,3.6-.65a.12.12,0,0,0,0-.24l-2.3.16c.46-.28.93-.53,1.41-.79,1.2-.16,2.39-.32,3.6-.39a.14.14,0,0,0,0-.28c-.81,0-1.62,0-2.43,0,.41-.21.82-.43,1.24-.63a23.79,23.79,0,0,1,3.59-.16c.15,0,.15-.24,0-.25a22.78,22.78,0,0,0-2.38-.17c.43-.21.89-.4,1.34-.6.47,0,.94-.07,1.4-.09.91-.06,1.81-.14,2.72-.22.18,0,.19-.28,0-.28-.9,0-1.81,0-2.73,0,.63-.23,1.26-.45,1.9-.66,1.15,0,2.3,0,3.46,0a.13.13,0,0,0,0-.25l-2.14-.16,1.2-.39a20.12,20.12,0,0,0,3.35-.2.12.12,0,1,0,0-.23h-2.1l1-.36A7.78,7.78,0,0,0,445,292a.11.11,0,0,0,0-.22,14.12,14.12,0,0,1-1.59,0,17.71,17.71,0,0,0,3.65-2l.74-.6a4.9,4.9,0,0,1,1-.75h0c1.16.43,2.73-.27,3.75-.83.11-.06,0-.24-.07-.19a12.83,12.83,0,0,1-1.83.44c-.2,0-.42,0-.64.06a3.63,3.63,0,0,1,.59-.13c.23-.11.6-.1.81-.29a1.26,1.26,0,0,0,.27-.38c.16-.05.31-.12.46-.18.55-.21,1.07-.46,1.6-.71.13-.06.05-.26-.09-.23-.54.12-1.06.25-1.58.41.14-.26.27-.51.41-.73a3.69,3.69,0,0,0,1.24-.54c.53-.27,1.08-.53,1.64-.77.13-.05,0-.23-.08-.22a9.15,9.15,0,0,0-1.88.51,2.71,2.71,0,0,0-.3.13,9,9,0,0,1,.63-.78,8.27,8.27,0,0,0,1.13-.51c.66-.31,1.3-.63,1.95-.92.09,0,0-.19-.06-.17a19.8,19.8,0,0,0-2.07.61l-.06,0,.7-.71c.31-.1.61-.24.9-.33.53-.18,1.07-.35,1.62-.49.16,0,.09-.26-.06-.25-.48.06-1.08.11-1.66.24l.21-.2a16.81,16.81,0,0,0,2.55-1.08.1.1,0,0,0-.08-.18c-.51.11-1.06.21-1.6.35l.27-.25a6.53,6.53,0,0,0,1.9-1s0-.12,0-.1a5.66,5.66,0,0,0-1.07.22l.39-.39.28-.11c.38-.15.78-.33,1.17-.51.12-.06,0-.24-.09-.21l-.68.17.44-.44c.57-.19,1.15-.4,1.73-.57a.1.1,0,0,0,0-.19,10.12,10.12,0,0,0-1.07.14c.12-.13.25-.24.37-.36a21.81,21.81,0,0,0,2.87-.9.13.13,0,0,0-.07-.24c-.61.11-1.3.19-2,.35.14-.14.27-.27.41-.39a26.76,26.76,0,0,0,4.12-1.14.13.13,0,0,0-.07-.25c-1.05.23-2.26.4-3.36.73.52-.48,1-1,1.58-1.44a13.49,13.49,0,0,0,1.51-.41c.77-.2,1.54-.41,2.29-.66a.15.15,0,0,0-.07-.29c-.78.15-1.55.34-2.32.54l-.68.15,1.64-1.43a8.72,8.72,0,0,0,1.31-.43c.57-.18,1.14-.36,1.71-.51.13,0,.11-.25,0-.24a12.49,12.49,0,0,0-2,.33l1-.79c.3-.07.59-.19.89-.29.51-.17,1-.32,1.53-.47.16-.06.15-.34,0-.32a7.89,7.89,0,0,0-1.28.18l.38-.29a23.11,23.11,0,0,0,2.36-.74.16.16,0,0,0-.09-.31c-.38.09-.81.14-1.22.23l.67-.52a8.57,8.57,0,0,0,2.23-.61.13.13,0,0,0-.07-.26c-.42.08-.88.14-1.3.25,1-.77,2.07-1.49,3.14-2.21l-.45.89a24.41,24.41,0,0,1-4,5.8c-3.2,3.48-6.8,6.61-10.2,9.88-2.91,2.8-6,5.58-7.86,9.24-.14.27-.24.53-.37.81a5.55,5.55,0,0,0-1.91-1.76c-.27-.17-.52.26-.26.43a5,5,0,0,1,1.8,2.11,3.55,3.55,0,0,1-.38.62,2.59,2.59,0,0,0-.18-.29,3.36,3.36,0,0,0-.47-.6c-.12-.11-.37,0-.3.18a3.47,3.47,0,0,0,.33.67c.11.15.18.32.33.4,0,0,0,0,0,.05a12,12,0,0,1-3.58,2C446,296,443.72,297,441.41,298c-8.68,3.68-17.63,7.25-25.69,12.22-4.09,2.52-8.29,7.1-13.4,7-3.45,0-6.65-2-9.61-3.81a8,8,0,0,0-2.39-1.76,20,20,0,0,0-4-1.25c-2.58-1.13-5.23-2.09-7.73-3-7.09-2.64-14.28-5-21.52-7.17-6.67-2-13.48-4-20.48-4-6.65,0-21.72,2.91-27.82,5.61-.51.23-31.64,13.44-31.64,13.56,7.12-.95,53.13-17.93,60.46-17.71,6.85.21,13.55,2.36,20.09,4.34,13.1,4,26.15,8.26,38.22,14.8a.34.34,0,0,0,.14,0,14.75,14.75,0,0,0,4.46,1.59c4.15.69,7.54-1.27,10.82-3.61,8.46-6.06,17.76-10,27.09-14.44,2.6-1.22,5.15-2.49,7.77-3.64,1.84-.81,4.06-1.36,5.68-2.56s2.17-3.21,3.25-4.9a30.65,30.65,0,0,1,4.67-5.31c3.68-3.54,7.47-7,11-10.63a23.88,23.88,0,0,0,4.11-5.32c.77-1.42,1.28-2.95,2-4.35a.64.64,0,0,0,.19-.35l.34-.57c1.64-1.61,3.08-3.48,4.55-5.21,1.33-1.57,3-3.18,3.84-5.11,1.43-3.42-1.27-5.6-4.43-5.89m-24.92,10.53-.06.07h-.11l.17-.06m-27.39,10.16c3.66-1.31,8.28-4.27,10.8-1.83,0,.05.12,0,.08-.06a3.72,3.72,0,0,0-.92-1.1c.14-.07.29-.17.43-.25l.15-.06c.37,0,.77,0,1.13,0,.71,0,1.42-.09,2.14-.14.13,0,.15-.21,0-.22-.67-.06-1.33-.13-2-.16.37-.16.74-.36,1.11-.54,1,0,2.06-.07,3.12-.05.13,0,.17-.23,0-.25a13.89,13.89,0,0,0-2.14-.25c.36-.2.72-.42,1.07-.63.32,0,.63-.06.94-.06a16.69,16.69,0,0,1,2.34.13c.07,0,.09-.13,0-.14a15,15,0,0,0-2.41-.46c.29-.16.6-.34.88-.52l.7,0a19.05,19.05,0,0,0,2.39-.15.12.12,0,0,0,0-.24,15.91,15.91,0,0,0-2.08-.16c.26-.16.52-.29.79-.43.85,0,1.73-.05,2.56-.09.13,0,.13-.19,0-.22l-1.64-.17.63-.32h.1c.65,0,1.3.1,1.95.14.12,0,.15-.18,0-.22a8.55,8.55,0,0,0-1.21-.32,11.36,11.36,0,0,1,2.74-.87l.16,0,.67-.08c.58,0,1.14-.07,1.69-.14l1,0-.76.91c-3.28,1.75-6.22,4.19-9.42,6.09a70,70,0,0,1-10.12,5.11,50.91,50.91,0,0,0-6.91-2.16m31-9.36h0v0a9.8,9.8,0,0,0-1.75,2.94c-3.25.75-6.37,2.64-9.18,4.37-3.15,1.91-6.22,4-9.28,6.06a23.38,23.38,0,0,0-2.64-1.35,59.78,59.78,0,0,0,6.22-3.06,6.22,6.22,0,0,1,1.43,0c.08,0,.08-.11,0-.14a4.4,4.4,0,0,0-.81-.22l.85-.5c.36,0,.73-.15,1.09-.21a14.75,14.75,0,0,1,1.76-.15.12.12,0,0,0,0-.24,11.57,11.57,0,0,0-1.8-.05l.13-.09,1.12-.69a6.49,6.49,0,0,0,1.24-.17c.68-.11,1.32-.28,2-.44.11,0,.09-.23,0-.21-.63,0-1.26.05-1.89.14h-.24c.44-.26.88-.56,1.32-.83a3.83,3.83,0,0,0,1.1-.18,14,14,0,0,1,1.85-.3c.08,0,.1-.13,0-.13a8.8,8.8,0,0,0-1.92-.06l.91-.6a2.84,2.84,0,0,0,1.12-.07l1.53-.27a.12.12,0,0,0,0-.24c-.56,0-1.14,0-1.7,0h-.13l.42-.29a10,10,0,0,0,4-.63.07.07,0,0,0,0-.14c-1.07.13-2.14.15-3.21.18l.26-.19c0,.11.14.21.25.12s.38-.28.58-.41c1.36-.3,2.71-.63,4.06-1,.12,0,.07-.21,0-.2-1.06.15-2.11.32-3.16.51a7,7,0,0,0,.58-.51h.1a39.11,39.11,0,0,0,4.21-1.14,4.09,4.09,0,0,0-.28.33m.65-.77c-1.35.26-2.71.57-4,.94.13-.11.24-.24.36-.35a.3.3,0,0,0,.16.05,25.58,25.58,0,0,0,2.59-.75c.29-.09.57-.16.86-.23a.19.19,0,0,0,.13.27l-.07.07m1.47-1.63-.72.19a.23.23,0,0,0,.11.44s0,0,.06,0a1.66,1.66,0,0,0-.13.14,10.44,10.44,0,0,0-3.77.72c.18-.19.34-.39.52-.58h0a22.65,22.65,0,0,1,4.64-1.7l-.72.81m5.09-5a32.74,32.74,0,0,0-4.31,4.1s0-.07-.06-.07a10.64,10.64,0,0,0-3.9,1c.25-.28.5-.58.73-.85a27.37,27.37,0,0,1,4.44-1.85.07.07,0,0,0,0-.14,9.73,9.73,0,0,0-3.32.77l.53-.57h0a22.06,22.06,0,0,1,4.13-1.53c.11,0,.09-.23,0-.21a10.94,10.94,0,0,0-3.17.8c.2-.18.41-.36.62-.52a.28.28,0,0,0,.18,0,12.68,12.68,0,0,1,3.84-1,.09.09,0,0,0,0-.17,9,9,0,0,0-3.13.51,13.91,13.91,0,0,1,1.67-1,25.26,25.26,0,0,1,3.58-.87c.09,0,.06-.15,0-.15a9.25,9.25,0,0,0-1.3.09l.64-.2a22.18,22.18,0,0,1,3.52-.62,19.26,19.26,0,0,0-4.63,2.58m-77,61.83-.28-.15a1.83,1.83,0,0,1,.28.14ZM484,253.28a25.67,25.67,0,0,1-1.82,2.23c-1.06,1.23-2.2,2.46-3.28,3.73-.25-1.95,1.89-3.92,3.09-5.16.93-1,2-1.8,3-2.71a0,0,0,0,0,0,0,7.65,7.65,0,0,1-1,1.89" transform="translate(-167.08 -78.18)"/><path class="cls-3" d="M437.42,273.82a1.93,1.93,0,0,0,1.07.21.14.14,0,0,0,0-.28,1.92,1.92,0,0,0-1-.13c-.08,0-.14.14-.06.2" transform="translate(-167.08 -78.18)"/><path class="cls-3" d="M412.19,271.13c.11-.16-.14-.36-.27-.21a3.48,3.48,0,0,0-.59.78.16.16,0,0,0,.26.19,3,3,0,0,0,.6-.76" transform="translate(-167.08 -78.18)"/><path class="cls-3" d="M408.76,281.22a.15.15,0,0,0,.27,0c.23-1.23.05-2.51.24-3.76a18.71,18.71,0,0,1,1.1-4c0-.06-.06-.08-.09,0-1.4,2-2.59,5.46-1.52,7.85" transform="translate(-167.08 -78.18)"/><path class="cls-3" d="M418.42,273.45c0-.09-.14,0-.13.05a14.4,14.4,0,0,1-.15,6.3c-.52,1.65-1.38,3.15-2,4.74,0,.1.09.14.15.1,3-2.35,3.54-7.85,2.15-11.19" transform="translate(-167.08 -78.18)"/><path class="cls-3" d="M415.7,285.46a2.84,2.84,0,0,0-.54.43c-.18.2.1.5.29.3a3.13,3.13,0,0,0,.37-.6c0-.08,0-.19-.12-.13" transform="translate(-167.08 -78.18)"/><path class="cls-3" d="M418.88,282.66a4.39,4.39,0,0,0,.45-1.29.08.08,0,0,0-.15,0,4.29,4.29,0,0,0-.44,1.29c0,.08.1.1.14,0" transform="translate(-167.08 -78.18)"/><path class="cls-3" d="M418.16,284.53a.42.42,0,0,0-.22.08.17.17,0,0,0,.08.31.46.46,0,0,0,.23,0,.19.19,0,0,0-.09-.36" transform="translate(-167.08 -78.18)"/><path class="cls-3" d="M432.15,277.07a.12.12,0,0,0,.22-.06,1.9,1.9,0,0,0,0-.41c0-.23-.41-.13-.34.09a2.05,2.05,0,0,0,.16.38" transform="translate(-167.08 -78.18)"/><path class="cls-3" d="M432.35,282.33a8,8,0,0,0,.16-3.48c0-.08-.14-.06-.14,0a10.1,10.1,0,0,1-.5,3.32c-.33.94-1.14,1.81-1.31,2.75a.15.15,0,0,0,.21.17c.91-.45,1.33-1.84,1.58-2.78" transform="translate(-167.08 -78.18)"/><path class="cls-3" d="M430,284.85a.82.82,0,0,0-.4.44.23.23,0,0,0,.28.29.7.7,0,0,0,.43-.31c.18-.21-.05-.59-.31-.42" transform="translate(-167.08 -78.18)"/><path class="cls-3" d="M395.44,302a3.78,3.78,0,0,0,1.21.13c.3,0,.3-.45,0-.48a4.09,4.09,0,0,0-1.21,0,.18.18,0,0,0,0,.35" transform="translate(-167.08 -78.18)"/><path class="cls-3" d="M351.1,292c3.2.76,6.56.73,9.8,1.55,3.41.86,6.72,2.05,10,3.2,6.23,2.17,12.62,4.14,19.24,4.37a.18.18,0,0,0,0-.35c-7.22-.42-13.82-3.21-20.57-5.59a87.9,87.9,0,0,0-9.65-2.93c-2.77-.63-6.06-1.43-8.87-.77a.27.27,0,0,0,0,.52" transform="translate(-167.08 -78.18)"/><path class="cls-5" d="M245,247.54a158,158,0,0,1,44-121,151.14,151.14,0,0,0-27.85,98.67C266.92,308,337.93,370.5,419.8,364.7c68.66-4.86,123.17-56.19,135.55-121.52-3.19,79-64.67,144.62-144.42,150.27C325.31,399.51,251,334.19,245,247.54" transform="translate(-167.08 -78.18)"/><path class="cls-5" d="M324,249.71c23.38-13.5,51.6-21.7,82.17-22.45,31.21-.76,60.41,6.37,84.79,19.21a248.46,248.46,0,0,0-168.55,4.17l1.59-.93" transform="translate(-167.08 -78.18)"/><polyline class="cls-6" points="170.64 124.41 170.64 127.72 170.64 165.56"/><line class="cls-6" x1="305.44" y1="160.74" x2="305.44" y2="122.71"/><line class="cls-6" x1="228.24" y1="151.96" x2="228.24" y2="106.24"/><line class="cls-6" x1="228.46" y1="106.24" x2="170.64" y2="129.42"/><polyline class="cls-7" points="225.41 102.3 228.24 106.44 257.97 79.5 275.55 110.31 275.55 125.84"/><polyline class="cls-6" points="259.32 71.99 259.38 72.12 284.77 115.61"/><polygon class="cls-5" points="165.19 128.57 183.29 110.8 186.26 91.22 207.87 95.76 259.72 71.81 226.07 102.98 165.19 128.57"/><polygon class="cls-4" points="188.51 92.65 185.54 111.23 197.16 106.59 188.51 92.65"/><polygon class="cls-5" points="177.82 137.69 177.82 151.22 187.95 146.98 187.95 133.45 177.82 137.69"/><polyline class="cls-8" points="183.06 135.49 183.06 142.26 183.06 149.02"/><polyline class="cls-8" points="187.95 140.18 183.06 142.26 177.82 144.48"/><polygon class="cls-5" points="202.18 127.14 202.18 140.67 212.31 136.44 212.31 122.91 202.18 127.14"/><polyline class="cls-8" points="207.42 124.95 207.42 131.71 207.42 138.48"/><polyline class="cls-8" points="212.31 129.64 207.42 131.71 202.17 133.94"/><polygon class="cls-5" points="260.25 107.82 260.25 121.35 250.12 117.11 250.12 103.58 260.25 107.82"/><polyline class="cls-8" points="255 119.15 255 112.39 255 105.62"/><polyline class="cls-8" points="260.25 114.61 255 112.39 250.12 110.31"/><polygon class="cls-5" points="294.28 127.14 294.28 140.67 284.15 136.44 284.15 122.91 294.28 127.14"/><polyline class="cls-8" points="289.04 138.48 289.04 131.71 289.04 124.95"/><polyline class="cls-8" points="294.29 133.94 289.04 131.71 284.15 129.64"/><polygon class="cls-5" points="282.91 109.04 286.31 114.7 275.55 114.61 275.55 116.6 305.45 126.11 311.21 122.91 282.91 109.04"/></g><text class="cls-9" transform="translate(63.69 359.14) scale(1.07 1)">R<tspan class="cls-10" x="34.91" y="0">O</tspan><tspan class="cls-11" x="69.34" y="0">Y</tspan><tspan x="97.94" y="0">AL </tspan><tspan class="cls-12" x="176.73" y="0">P</tspan><tspan x="208.25" y="0">ALM</tspan></text><text class="cls-13" transform="translate(59.53 423.79) scale(1.07 1)">REAL E<tspan class="cls-14" x="175.28" y="0">S</tspan><tspan class="cls-15" x="205.34" y="0">TA</tspan><tspan x="263.04" y="0">TE</tspan></text></svg>